
<svg width="66" height="57" viewBox="0 0 66 57" fill="none" xmlns="http://www.w3.org/2000/svg">
<path d="M1.34303 56.9999C0.933015 56.9999 0.549452 56.8164 0.284926 56.4886C-0.0457316 56.056 -0.0986368 55.4793 0.179116 55.0073L31.8429 0.670452C32.081 0.264072 32.5174 0.00189209 33.0068 0.00189209C33.483 0.00189209 33.9326 0.250963 34.1707 0.670452L65.8213 55.0073C66.1123 55.5186 66.0461 56.1609 65.6361 56.5804C65.2261 56.9999 64.5912 57.1179 64.0622 56.8557L41.5378 45.5557L1.72659 56.9475C1.59433 56.9868 1.47529 56.9999 1.34303 56.9999ZM33.0068 3.98703L4.16023 53.4867L41.2865 42.8553C41.6171 42.7635 41.961 42.7897 42.2652 42.947L61.245 52.4773L33.0068 3.98703Z" fill="white"/>
<path d="M1.3425 57C1.02507 57 0.694412 56.882 0.443112 56.6592C-0.0991664 56.161 -0.138845 55.322 0.350528 54.7846L30.3081 22.1431L31.6704 1.24734C31.7233 0.513233 32.345 -0.0373454 33.0856 0.00198167C33.8263 0.0544178 34.3818 0.683651 34.3421 1.40465L33.0327 21.7761L49.7111 27.9504C50.0682 28.0815 50.346 28.3568 50.4915 28.7107C50.6369 29.0647 50.6105 29.458 50.4385 29.7857L42.8599 44.73C42.635 45.1888 42.1457 45.4641 41.6431 45.4641C41.1272 45.451 40.6643 45.1626 40.4527 44.6906L31.2604 25.0533L2.33447 56.5674C2.06995 56.8558 1.71284 57 1.3425 57ZM34.2099 25.0533L41.7092 41.0725L47.37 29.9168L34.2099 25.0533Z" fill="white"/>
</svg>
