<svg width="171" height="349" viewBox="0 0 171 349" fill="none" xmlns="http://www.w3.org/2000/svg">
<g clip-path="url(#clip0)">
<path d="M0.892277 81.5366C-0.0997053 100.216 -1.72477 119.07 5.41353 131.049C10.9666 140.369 25.2632 158.207 27.2172 168.582C28.264 174.146 26.7287 184.363 24.7597 188.836C23.8525 190.898 21.1906 192.178 18.4987 195.212C15.8119 198.24 10.4731 205.627 9.32663 212.89L85.5 212.89L85.5 -0.00500488L65.9295 -0.00500574C65.0123 -0.00500578 64.12 0.283901 63.3773 0.821867C61.2388 2.36105 57.206 6.11186 57.0515 12.5774C56.8421 21.3841 36.9726 13.753 19.072 31.451C9.59582 40.8206 2.15344 57.7764 0.892277 81.5366Z" fill="#899BA6"/>
<path d="M20.1038 47.1616C10.4432 58.5983 8.21497 109.979 12.821 119.931C17.427 129.884 23.4786 143.99 26.8184 139.981C30.1583 135.971 54.0855 42.559 49.7736 36.1732C45.4617 29.7823 20.1038 47.1616 20.1038 47.1616Z" fill="#A5B3BC"/>
<path d="M159.111 284.733L159.111 224.81C159.111 223.888 159.859 223.141 160.781 223.141L165.018 223.141C165.94 223.141 166.688 223.888 166.688 224.81L166.688 284.733C166.688 285.655 165.94 286.402 165.018 286.402L160.781 286.402C159.859 286.402 159.111 285.655 159.111 284.733Z" fill="#1B1B1B"/>
<path d="M4.30684 284.733L4.30684 224.81C4.30684 223.888 5.05457 223.141 5.97676 223.141L10.2139 223.141C11.1361 223.141 11.8838 223.888 11.8838 224.81L11.8838 284.733C11.8838 285.655 11.1361 286.402 10.2139 286.402L5.97676 286.402C5.05955 286.402 4.30684 285.655 4.30684 284.733Z" fill="#1B1B1B"/>
<path d="M129.132 212.895L161.628 212.895C161.743 213.737 161.823 214.558 161.863 215.345C162.227 222.892 165.472 282.422 158.214 300.055C156.21 304.932 125.344 314.476 113.629 314.476" fill="#303333"/>
<path d="M42.1817 212.003L9.68052 212.003C9.56586 212.845 9.48611 213.667 9.44623 214.454C9.08234 222 5.8372 281.53 13.0951 299.163C15.099 304.04 45.9652 313.584 57.6796 313.584" fill="#303333"/>
<path d="M170.108 81.5361C171.1 100.215 172.725 119.069 165.586 131.049C160.033 140.369 145.737 158.206 143.783 168.582C142.736 174.146 144.271 184.362 146.24 188.835C147.148 190.897 149.809 192.178 152.501 195.211C155.188 198.24 160.527 205.627 161.673 212.889L85.5 212.889L85.5 -0.0054969L105.071 -0.00549605C105.988 -0.00549601 106.88 0.283411 107.623 0.821377C109.761 2.36056 113.794 6.11137 113.948 12.5769C114.158 21.3836 134.027 13.7525 151.928 31.4505C161.404 40.8201 168.847 57.776 170.108 81.5361Z" fill="#899BA6"/>
<path d="M29.276 214.897C29.0865 163.606 48.0987 96.9583 55.4314 74.7124C61.2687 56.9994 61.1391 34.5593 60.2817 20.6469C59.848 13.5985 64.788 7.62115 71.019 7.62115L99.971 7.62115C106.202 7.62115 111.142 13.6035 110.708 20.6469C109.851 34.5593 109.721 57.0044 115.559 74.7124C122.891 96.9583 141.903 163.606 141.714 214.897C141.714 214.897 137.258 251.205 130.792 257.665C124.327 264.126 115.668 292.638 115.668 318.59L57.6746 318.59C57.6746 318.59 49.4247 266.128 40.3622 256.475C31.2998 246.826 29.276 214.897 29.276 214.897Z" fill="#272829"/>
<path d="M85.5 212.895L129.132 212.895C133.12 212.895 135.209 209.219 134.885 205.244C130.134 147.402 104.328 94.0294 104.328 75.878L104.328 29.6528C104.328 26.3503 101.646 23.6705 98.3409 23.6705L84.9467 23.6705L72.659 23.6705C69.3541 23.6705 66.6722 26.3503 66.6722 29.6528L66.6722 75.878C66.6722 94.0294 43.2086 183.87 36.9925 205.244C35.8809 209.074 38.7521 212.895 42.745 212.895L85.5 212.895Z" fill="#899BA6"/>
<path d="M150.896 47.1616C160.557 58.5984 162.785 109.979 158.179 119.931C153.573 129.884 147.521 143.99 144.182 139.981C140.842 135.971 116.914 42.554 121.226 36.1682C125.538 29.7823 150.896 47.1616 150.896 47.1616Z" fill="#A5B3BC"/>
<path d="M57.6796 338.42L57.6796 298.77C57.6796 292.927 62.4202 288.19 68.2674 288.19L105.085 288.19C110.933 288.19 115.673 292.927 115.673 298.77L115.673 338.42C115.673 344.263 110.933 349 105.085 349L68.2674 349C62.4202 349 57.6796 344.263 57.6796 338.42Z" fill="#272829"/>
</g>
<defs>
<clipPath id="clip0">
<rect width="349" height="171" fill="white" transform="translate(171) rotate(90)"/>
</clipPath>
</defs>
</svg>
