<svg width="337" height="364" viewBox="0 0 337 364" fill="none" xmlns="http://www.w3.org/2000/svg">
<g clip-path="url(#clip0)">
<path d="M4.22844 117.387L20.0462 144.785L125.834 328.014L141.651 355.411C144.408 360.185 148.867 362.376 149.814 360.768L176.222 313.172C177.168 311.572 175.359 305.797 172.921 301.574L172.399 300.67L67.0116 118.134L66.4901 117.23C64.0542 113.011 59.9594 108.551 58.0936 108.567L4.41312 107.675C2.54732 107.692 1.47214 112.613 4.22844 117.387Z" fill="#E5E8EC"/>
<path d="M198.048 30.4893C202.272 28.0508 207.665 29.496 210.104 33.7195L317.572 219.861C320.008 224.08 318.565 229.478 314.342 231.916L189.051 304.253C184.827 306.691 179.431 305.242 176.995 301.023L69.5268 114.882C67.0908 110.662 68.5334 105.265 72.757 102.826L198.048 30.4893Z" fill="#E5E8EC"/>
<path d="M6.03087 116.348L21.8486 143.745L127.636 326.974L143.454 354.371C146.21 359.145 149.21 361.72 150.157 360.112L177.422 311.088C178.367 309.487 177.157 304.76 174.719 300.536L174.197 299.633L68.8097 117.096L68.2883 116.193C65.8523 111.974 62.361 108.559 60.4995 108.573L4.41345 107.676C2.54765 107.692 3.27456 111.574 6.03087 116.348Z" fill="#30363D"/>
<path d="M146.36 75.6199C150.936 72.9778 156.845 74.5611 159.487 79.1373L252.802 240.763C255.444 245.339 253.861 251.248 249.285 253.89L192.645 286.591C188.069 289.233 182.16 287.65 179.518 283.074L86.2034 121.448C83.5614 116.872 85.1447 110.963 89.7209 108.321L146.36 75.6199Z" fill="#CDD5D7"/>
<path d="M183.594 271.131C184.51 270.602 185.69 270.919 186.219 271.835L190.525 279.293C191.054 280.209 190.738 281.389 189.821 281.918L187.009 283.542C186.092 284.071 184.912 283.755 184.383 282.839L180.077 275.381C179.548 274.465 179.865 273.284 180.781 272.755L183.594 271.131Z" fill="#30363D"/>
<path d="M176.574 258.973C177.49 258.444 178.671 258.761 179.2 259.677L183.505 267.135C184.034 268.051 183.718 269.231 182.802 269.76L179.989 271.384C179.073 271.913 177.893 271.597 177.364 270.681L173.058 263.223C172.529 262.307 172.845 261.126 173.761 260.597L176.574 258.973Z" fill="#30363D"/>
<path d="M169.552 246.81C170.468 246.281 171.648 246.597 172.177 247.514L176.483 254.971C177.012 255.888 176.696 257.068 175.78 257.597L172.967 259.221C172.051 259.75 170.87 259.434 170.341 258.517L166.033 251.055C165.504 250.139 165.82 248.959 166.736 248.43L169.549 246.806L169.552 246.81Z" fill="#30363D"/>
<path d="M162.529 234.647C163.445 234.118 164.626 234.434 165.155 235.35L169.463 242.813C169.992 243.729 169.676 244.909 168.76 245.438L165.947 247.062C165.031 247.591 163.85 247.275 163.321 246.359L159.013 238.896C158.484 237.98 158.8 236.8 159.716 236.271L162.529 234.647Z" fill="#30363D"/>
<path d="M155.507 222.484C156.423 221.955 157.603 222.271 158.132 223.187L162.441 230.65C162.97 231.566 162.653 232.746 161.737 233.275L158.924 234.899C158.008 235.428 156.828 235.112 156.299 234.195L151.991 226.733C151.462 225.817 151.778 224.637 152.694 224.108L155.507 222.484Z" fill="#30363D"/>
<path d="M148.485 210.321C149.401 209.792 150.581 210.108 151.11 211.024L155.418 218.486C155.947 219.403 155.631 220.583 154.715 221.112L151.902 222.736C150.986 223.265 149.805 222.949 149.277 222.032L144.968 214.57C144.439 213.654 144.756 212.474 145.672 211.945L148.485 210.321Z" fill="#30363D"/>
<path d="M141.462 198.158C142.378 197.629 143.559 197.945 144.088 198.861L148.396 206.323C148.925 207.239 148.609 208.42 147.692 208.949L144.88 210.573C143.964 211.102 142.783 210.785 142.254 209.869L137.946 202.407C137.417 201.491 137.733 200.311 138.649 199.782L141.462 198.158Z" fill="#30363D"/>
<path d="M134.44 185.995C135.356 185.466 136.536 185.782 137.065 186.698L141.374 194.16C141.902 195.076 141.586 196.257 140.67 196.786L137.857 198.41C136.941 198.939 135.761 198.622 135.232 197.706L130.923 190.244C130.395 189.328 130.711 188.147 131.627 187.619L134.44 185.995Z" fill="#30363D"/>
<path d="M127.417 173.831C128.334 173.303 129.514 173.619 130.043 174.535L134.351 181.997C134.88 182.913 134.564 184.094 133.648 184.623L130.835 186.247C129.919 186.775 128.738 186.459 128.209 185.543L123.901 178.081C123.372 177.165 123.689 175.984 124.605 175.455L127.417 173.831Z" fill="#30363D"/>
<path d="M120.395 161.668C121.311 161.139 122.492 161.456 123.021 162.372L127.329 169.834C127.858 170.75 127.541 171.931 126.625 172.459L123.813 174.083C122.896 174.612 121.716 174.296 121.187 173.38L116.879 165.918C116.35 165.002 116.666 163.821 117.582 163.292L120.395 161.668Z" fill="#30363D"/>
<path d="M113.373 149.505C114.289 148.976 115.469 149.293 115.998 150.209L120.306 157.671C120.835 158.587 120.519 159.767 119.603 160.296L116.79 161.92C115.874 162.449 114.694 162.133 114.165 161.217L109.856 153.755C109.327 152.839 109.644 151.658 110.56 151.129L113.373 149.505Z" fill="#30363D"/>
<path d="M106.35 137.342C107.266 136.813 108.447 137.13 108.976 138.046L113.284 145.508C113.813 146.424 113.497 147.604 112.581 148.133L109.768 149.757C108.852 150.286 107.671 149.97 107.142 149.054L102.834 141.592C102.305 140.675 102.621 139.495 103.538 138.966L106.35 137.342Z" fill="#30363D"/>
<path d="M99.3304 125.183C100.247 124.654 101.427 124.971 101.956 125.887L106.264 133.349C106.793 134.265 106.477 135.446 105.561 135.974L102.748 137.598C101.832 138.127 100.651 137.811 100.122 136.895L95.8141 129.433C95.2852 128.517 95.6015 127.336 96.5176 126.807L99.3304 125.183Z" fill="#30363D"/>
<path d="M92.3081 113.02C93.2242 112.491 94.4046 112.808 94.9335 113.724L99.2418 121.186C99.7707 122.102 99.4544 123.282 98.5383 123.811L95.7255 125.435C94.8094 125.964 93.629 125.648 93.1001 124.732L88.7918 117.27C88.2629 116.354 88.5792 115.173 89.4953 114.644L92.3081 113.02Z" fill="#30363D"/>
<path d="M195.497 265.011C196.414 264.482 197.594 264.798 198.123 265.714L202.106 272.613C202.635 273.529 202.319 274.71 201.402 275.238L194.783 279.06C193.867 279.589 192.687 279.273 192.158 278.357L188.175 271.458C187.646 270.542 187.962 269.361 188.878 268.832L195.497 265.011Z" fill="#30363D"/>
<path d="M188.706 253.248C189.622 252.719 190.803 253.035 191.331 253.951L195.314 260.85C195.843 261.766 195.527 262.946 194.611 263.475L187.992 267.297C187.076 267.826 185.895 267.51 185.366 266.593L181.383 259.695C180.854 258.779 181.171 257.598 182.087 257.069L188.706 253.248Z" fill="#30363D"/>
<path d="M181.917 241.489C182.833 240.96 184.014 241.276 184.542 242.192L188.525 249.091C189.054 250.007 188.738 251.188 187.822 251.717L181.203 255.538C180.287 256.067 179.106 255.751 178.577 254.835L174.594 247.936C174.065 247.02 174.382 245.839 175.298 245.31L181.917 241.489Z" fill="#30363D"/>
<path d="M175.128 229.73C176.044 229.201 177.225 229.517 177.754 230.434L181.737 237.332C182.265 238.248 181.949 239.429 181.033 239.958L174.414 243.779C173.498 244.308 172.317 243.992 171.788 243.076L167.805 236.177C167.277 235.261 167.593 234.081 168.509 233.552L175.128 229.73Z" fill="#30363D"/>
<path d="M168.337 217.967C169.253 217.438 170.433 217.754 170.962 218.67L174.945 225.569C175.474 226.485 175.158 227.666 174.242 228.195L167.622 232.016C166.706 232.545 165.526 232.229 164.997 231.313L161.014 224.414C160.485 223.498 160.801 222.317 161.718 221.788L168.337 217.967Z" fill="#30363D"/>
<path d="M161.545 206.204C162.461 205.675 163.642 205.991 164.171 206.907L168.154 213.806C168.683 214.722 168.366 215.903 167.45 216.431L160.831 220.253C159.915 220.782 158.734 220.466 158.206 219.55L154.223 212.651C153.694 211.735 154.01 210.554 154.926 210.025L161.545 206.204Z" fill="#30363D"/>
<path d="M154.756 194.445C155.672 193.916 156.853 194.232 157.382 195.148L161.367 202.051C161.896 202.968 161.58 204.148 160.664 204.677L154.044 208.499C153.128 209.027 151.948 208.711 151.419 207.795L147.434 200.892C146.905 199.976 147.221 198.795 148.137 198.267L154.756 194.445Z" fill="#30363D"/>
<path d="M147.967 182.686C148.883 182.157 150.064 182.474 150.593 183.39L154.576 190.288C155.105 191.204 154.788 192.385 153.872 192.914L147.253 196.735C146.337 197.264 145.157 196.948 144.628 196.032L140.645 189.133C140.116 188.217 140.432 187.037 141.348 186.508L147.967 182.686Z" fill="#30363D"/>
<path d="M141.178 170.927C142.094 170.398 143.275 170.715 143.804 171.631L147.787 178.53C148.316 179.446 147.999 180.626 147.083 181.155L140.464 184.977C139.548 185.505 138.368 185.189 137.839 184.273L133.856 177.374C133.327 176.458 133.643 175.278 134.559 174.749L141.178 170.927Z" fill="#30363D"/>
<path d="M134.387 159.164C135.303 158.635 136.483 158.952 137.012 159.868L140.995 166.766C141.524 167.683 141.208 168.863 140.292 169.392L133.673 173.213C132.757 173.742 131.576 173.426 131.047 172.51L127.064 165.611C126.535 164.695 126.852 163.515 127.768 162.986L134.387 159.164Z" fill="#30363D"/>
<path d="M127.598 147.405C128.514 146.877 129.694 147.193 130.223 148.109L134.206 155.008C134.735 155.924 134.419 157.104 133.503 157.633L126.884 161.455C125.968 161.984 124.787 161.667 124.258 160.751L120.275 153.852C119.746 152.936 120.063 151.756 120.979 151.227L127.598 147.405Z" fill="#30363D"/>
<path d="M120.807 135.642C121.723 135.113 122.903 135.43 123.432 136.346L127.417 143.249C127.946 144.165 127.63 145.345 126.714 145.874L120.095 149.696C119.179 150.225 117.998 149.908 117.469 148.992L113.484 142.089C112.955 141.173 113.271 139.993 114.187 139.464L120.807 135.642Z" fill="#30363D"/>
<path d="M114.017 123.883C114.934 123.355 116.114 123.671 116.643 124.587L120.626 131.486C121.155 132.402 120.839 133.582 119.922 134.111L113.303 137.933C112.387 138.462 111.207 138.145 110.678 137.229L106.695 130.33C106.166 129.414 106.482 128.234 107.398 127.705L114.017 123.883Z" fill="#30363D"/>
<path d="M103.886 106.336C104.802 105.807 105.983 106.123 106.512 107.039L113.837 119.727C114.366 120.643 114.05 121.823 113.133 122.352L106.514 126.174C105.598 126.703 104.418 126.387 103.889 125.47L96.5635 112.783C96.0346 111.866 96.3509 110.686 97.267 110.157L103.886 106.336Z" fill="#30363D"/>
<path d="M203.187 252.376C204.104 251.847 205.284 252.164 205.813 253.08L213.344 266.124C213.873 267.041 213.557 268.221 212.641 268.75L206.022 272.572C205.11 273.098 203.925 272.784 203.396 271.868L195.865 258.823C195.336 257.907 195.656 256.724 196.568 256.198L203.187 252.376Z" fill="#30363D"/>
<path d="M196.53 240.845C197.446 240.316 198.627 240.633 199.156 241.549L203.139 248.448C203.667 249.364 203.351 250.544 202.435 251.073L195.816 254.895C194.904 255.421 193.719 255.107 193.19 254.191L189.207 247.292C188.678 246.376 188.999 245.193 189.911 244.667L196.53 240.845Z" fill="#30363D"/>
<path d="M189.751 229.104C190.667 228.575 191.847 228.891 192.376 229.807L196.362 236.71C196.891 237.626 196.574 238.807 195.658 239.336L189.039 243.157C188.127 243.684 186.943 243.37 186.414 242.454L182.428 235.551C181.899 234.635 182.22 233.452 183.132 232.925L189.751 229.104Z" fill="#30363D"/>
<path d="M182.972 217.362C183.888 216.833 185.068 217.149 185.597 218.066L189.58 224.964C190.109 225.88 189.793 227.061 188.877 227.59L182.258 231.411C181.346 231.938 180.161 231.624 179.632 230.708L175.649 223.809C175.12 222.893 175.441 221.71 176.353 221.184L182.972 217.362Z" fill="#30363D"/>
<path d="M176.195 205.625C177.112 205.096 178.292 205.412 178.821 206.328L182.804 213.227C183.333 214.143 183.017 215.324 182.1 215.853L175.481 219.674C174.569 220.201 173.385 219.887 172.856 218.971L168.873 212.072C168.344 211.156 168.664 209.973 169.576 209.446L176.195 205.625Z" fill="#30363D"/>
<path d="M169.416 193.883C170.333 193.354 171.513 193.671 172.042 194.587L176.022 201.481C176.551 202.397 176.235 203.578 175.319 204.107L168.7 207.928C167.788 208.455 166.603 208.141 166.074 207.225L162.094 200.33C161.565 199.414 161.885 198.231 162.797 197.705L169.416 193.883Z" fill="#30363D"/>
<path d="M162.637 182.142C163.554 181.613 164.734 181.929 165.263 182.845L169.248 189.748C169.777 190.664 169.461 191.845 168.545 192.374L161.926 196.195C161.014 196.722 159.829 196.408 159.3 195.492L155.315 188.589C154.786 187.673 155.106 186.49 156.018 185.963L162.637 182.142Z" fill="#30363D"/>
<path d="M155.858 170.4C156.774 169.871 157.955 170.187 158.484 171.103L162.469 178.007C162.998 178.923 162.682 180.103 161.766 180.632L155.147 184.454C154.235 184.98 153.05 184.666 152.521 183.75L148.536 176.847C148.007 175.931 148.327 174.748 149.239 174.222L155.858 170.4Z" fill="#30363D"/>
<path d="M149.079 158.658C149.995 158.129 151.176 158.446 151.705 159.362L155.688 166.261C156.217 167.177 155.9 168.357 154.984 168.886L148.365 172.708C147.453 173.234 146.269 172.92 145.74 172.004L141.757 165.105C141.228 164.189 141.548 163.006 142.46 162.48L149.079 158.658Z" fill="#30363D"/>
<path d="M142.303 146.921C143.219 146.392 144.399 146.708 144.928 147.625L148.914 154.528C149.443 155.444 149.126 156.624 148.21 157.153L141.591 160.975C140.679 161.501 139.495 161.187 138.966 160.271L134.98 153.368C134.451 152.452 134.772 151.269 135.684 150.743L142.303 146.921Z" fill="#30363D"/>
<path d="M128.747 123.442C129.663 122.913 130.844 123.23 131.373 124.146L135.356 131.044C135.885 131.96 135.568 133.141 134.652 133.67L128.033 137.491C127.121 138.018 125.937 137.704 125.408 136.788L121.425 129.889C120.896 128.973 121.216 127.79 122.128 127.264L128.747 123.442Z" fill="#30363D"/>
<path d="M135.524 135.179C136.44 134.651 137.62 134.967 138.149 135.883L142.132 142.782C142.661 143.698 142.345 144.878 141.429 145.407L134.81 149.229C133.898 149.755 132.713 149.441 132.184 148.525L128.201 141.626C127.672 140.71 127.993 139.527 128.905 139.001L135.524 135.179Z" fill="#30363D"/>
<path d="M121.968 111.701C122.884 111.172 124.065 111.488 124.594 112.404L128.577 119.303C129.106 120.219 128.789 121.399 127.873 121.928L121.254 125.75C120.342 126.276 119.157 125.962 118.628 125.046L114.646 118.148C114.117 117.231 114.437 116.049 115.349 115.522L121.968 111.701Z" fill="#30363D"/>
<path d="M213.234 242.78C214.15 242.251 215.33 242.567 215.859 243.483L225.034 259.375C225.563 260.291 225.247 261.472 224.331 262.001L217.712 265.822C216.795 266.351 215.615 266.035 215.086 265.119L205.911 249.227C205.382 248.311 205.698 247.13 206.614 246.601L213.234 242.78Z" fill="#30363D"/>
<path d="M206.316 230.797C207.232 230.268 208.412 230.585 208.941 231.501L212.926 238.404C213.455 239.32 213.139 240.5 212.223 241.029L205.604 244.851C204.688 245.38 203.507 245.063 202.978 244.147L198.995 237.249C198.466 236.333 198.783 235.152 199.699 234.623L206.318 230.802L206.316 230.797Z" fill="#30363D"/>
<path d="M199.561 219.099C200.477 218.57 201.658 218.886 202.187 219.802L206.17 226.701C206.699 227.617 206.382 228.797 205.466 229.326L198.847 233.148C197.931 233.677 196.751 233.361 196.222 232.444L192.239 225.546C191.71 224.63 192.026 223.449 192.942 222.92L199.561 219.099Z" fill="#30363D"/>
<path d="M192.807 207.4C193.723 206.871 194.904 207.187 195.432 208.104L199.415 215.002C199.944 215.918 199.628 217.099 198.712 217.628L192.093 221.449C191.177 221.978 189.996 221.662 189.467 220.746L185.484 213.847C184.955 212.931 185.272 211.751 186.188 211.222L192.807 207.4Z" fill="#30363D"/>
<path d="M186.053 195.702C186.969 195.173 188.149 195.489 188.678 196.405L192.661 203.304C193.19 204.22 192.874 205.4 191.958 205.929L185.339 209.751C184.423 210.28 183.242 209.963 182.713 209.047L178.73 202.149C178.201 201.232 178.518 200.052 179.434 199.523L186.053 195.702Z" fill="#30363D"/>
<path d="M179.299 184.003C180.215 183.474 181.395 183.79 181.924 184.706L185.907 191.605C186.436 192.521 186.12 193.702 185.204 194.231L178.585 198.052C177.668 198.581 176.488 198.265 175.959 197.349L171.976 190.45C171.447 189.534 171.763 188.353 172.68 187.824L179.299 184.003Z" fill="#30363D"/>
<path d="M172.542 172.3C173.458 171.771 174.639 172.087 175.167 173.003L179.15 179.902C179.679 180.818 179.363 181.999 178.447 182.528L171.828 186.349C170.912 186.878 169.731 186.562 169.202 185.646L165.219 178.747C164.69 177.831 165.007 176.65 165.923 176.122L172.542 172.3Z" fill="#30363D"/>
<path d="M165.788 160.601C166.704 160.072 167.884 160.389 168.413 161.305L172.396 168.204C172.925 169.12 172.609 170.3 171.693 170.829L165.074 174.651C164.158 175.18 162.977 174.863 162.448 173.947L158.465 167.048C157.936 166.132 158.253 164.952 159.169 164.423L165.788 160.601Z" fill="#30363D"/>
<path d="M159.031 148.898C159.947 148.37 161.128 148.686 161.657 149.602L165.64 156.501C166.168 157.417 165.852 158.597 164.936 159.126L158.317 162.948C157.401 163.477 156.22 163.16 155.691 162.244L151.708 155.345C151.18 154.429 151.496 153.249 152.412 152.72L159.031 148.898Z" fill="#30363D"/>
<path d="M152.277 137.2C153.193 136.671 154.374 136.987 154.902 137.903L158.888 144.806C159.417 145.722 159.101 146.903 158.184 147.432L151.565 151.253C150.649 151.782 149.469 151.466 148.94 150.55L144.954 143.647C144.425 142.731 144.742 141.55 145.658 141.021L152.277 137.2Z" fill="#30363D"/>
<path d="M145.523 125.501C146.439 124.972 147.619 125.289 148.148 126.205L152.131 133.103C152.66 134.02 152.344 135.2 151.428 135.729L144.809 139.55C143.893 140.079 142.712 139.763 142.183 138.847L138.2 131.948C137.671 131.032 137.988 129.852 138.904 129.323L145.523 125.501Z" fill="#30363D"/>
<path d="M138.769 113.803C139.685 113.274 140.865 113.59 141.394 114.506L145.377 121.405C145.906 122.321 145.59 123.501 144.674 124.03L138.054 127.852C137.138 128.381 135.958 128.065 135.429 127.148L131.446 120.25C130.917 119.334 131.233 118.153 132.149 117.624L138.769 113.803Z" fill="#30363D"/>
<path d="M132.012 102.1C132.928 101.571 134.108 101.887 134.637 102.803L138.62 109.702C139.149 110.618 138.833 111.799 137.917 112.327L131.298 116.149C130.382 116.678 129.201 116.362 128.672 115.446L124.689 108.547C124.16 107.631 124.477 106.45 125.393 105.921L132.012 102.1Z" fill="#30363D"/>
<path d="M111.841 113.281C112.37 114.197 113.555 114.511 114.467 113.984L121.086 110.163C122.002 109.634 122.341 108.492 121.842 107.627C121.343 106.763 121.681 105.621 122.597 105.092L130.958 100.265C131.874 99.7362 132.191 98.5557 131.662 97.6396L129.444 93.7989C128.915 92.8828 127.735 92.5665 126.819 93.0954L108.51 103.666C107.598 104.193 107.277 105.376 107.806 106.292L111.841 113.281Z" fill="#30363D"/>
<path d="M228.646 242.478C229.562 241.949 230.742 242.265 231.271 243.181L236.724 252.626C237.253 253.542 236.937 254.723 236.021 255.252L229.402 259.073C228.486 259.602 227.305 259.286 226.776 258.37L221.323 248.925C220.794 248.009 221.111 246.828 222.027 246.299L228.646 242.478Z" fill="#30363D"/>
<path d="M221.554 230.194C222.47 229.665 223.65 229.982 224.179 230.898L228.162 237.796C228.691 238.712 228.375 239.893 227.459 240.422L220.84 244.243C219.924 244.772 218.743 244.456 218.214 243.54L214.231 236.641C213.702 235.725 214.019 234.545 214.935 234.016L221.554 230.194Z" fill="#30363D"/>
<path d="M214.782 218.465C215.698 217.937 216.879 218.253 217.408 219.169L221.391 226.068C221.92 226.984 221.603 228.164 220.687 228.693L214.068 232.515C213.152 233.044 211.972 232.727 211.443 231.811L207.46 224.912C206.931 223.996 207.247 222.816 208.163 222.287L214.782 218.465Z" fill="#30363D"/>
<path d="M208.008 206.732C208.924 206.203 210.105 206.52 210.634 207.436L214.619 214.339C215.148 215.255 214.832 216.435 213.916 216.964L207.297 220.786C206.38 221.315 205.2 220.999 204.671 220.082L200.686 213.179C200.157 212.263 200.473 211.083 201.389 210.554L208.008 206.732Z" fill="#30363D"/>
<path d="M201.237 195.004C202.153 194.475 203.333 194.791 203.862 195.707L207.845 202.606C208.374 203.522 208.058 204.702 207.142 205.231L200.522 209.053C199.606 209.582 198.426 209.266 197.897 208.349L193.914 201.451C193.385 200.535 193.701 199.354 194.618 198.825L201.237 195.004Z" fill="#30363D"/>
<path d="M194.463 183.271C195.379 182.742 196.559 183.058 197.088 183.974L201.071 190.873C201.6 191.789 201.284 192.969 200.368 193.498L193.748 197.32C192.832 197.849 191.652 197.533 191.123 196.616L187.14 189.718C186.611 188.802 186.927 187.621 187.844 187.092L194.463 183.271Z" fill="#30363D"/>
<path d="M187.691 171.542C188.607 171.013 189.788 171.329 190.317 172.245L194.3 179.144C194.828 180.06 194.512 181.241 193.596 181.77L186.977 185.591C186.061 186.12 184.88 185.804 184.351 184.888L180.368 177.989C179.839 177.073 180.156 175.892 181.072 175.364L187.691 171.542Z" fill="#30363D"/>
<path d="M180.917 159.809C181.833 159.28 183.014 159.596 183.542 160.512L187.525 167.411C188.054 168.327 187.738 169.508 186.822 170.037L180.203 173.858C179.287 174.387 178.106 174.071 177.577 173.155L173.594 166.256C173.065 165.34 173.382 164.159 174.298 163.631L180.917 159.809Z" fill="#30363D"/>
<path d="M174.145 148.08C175.062 147.551 176.242 147.868 176.771 148.784L180.754 155.682C181.283 156.599 180.966 157.779 180.05 158.308L173.431 162.13C172.515 162.658 171.335 162.342 170.806 161.426L166.823 154.527C166.294 153.611 166.61 152.431 167.526 151.902L174.145 148.08Z" fill="#30363D"/>
<path d="M167.371 136.347C168.287 135.818 169.468 136.135 169.997 137.051L173.98 143.949C174.509 144.866 174.192 146.046 173.276 146.575L166.657 150.397C165.741 150.925 164.561 150.609 164.032 149.693L160.049 142.794C159.52 141.878 159.836 140.698 160.752 140.169L167.371 136.347Z" fill="#30363D"/>
<path d="M160.6 124.619C161.516 124.09 162.696 124.406 163.225 125.322L167.208 132.221C167.737 133.137 167.421 134.317 166.505 134.846L159.886 138.668C158.97 139.197 157.789 138.88 157.26 137.964L153.277 131.066C152.748 130.149 153.065 128.969 153.981 128.44L160.6 124.619Z" fill="#30363D"/>
<path d="M153.826 112.886C154.742 112.357 155.922 112.673 156.451 113.589L160.437 120.492C160.966 121.408 160.649 122.589 159.733 123.118L153.114 126.939C152.198 127.468 151.018 127.152 150.489 126.236L146.503 119.333C145.974 118.416 146.291 117.236 147.207 116.707L153.826 112.886Z" fill="#30363D"/>
<path d="M138.505 86.3486C139.421 85.8197 140.601 86.136 141.13 87.0521L153.558 108.578C154.087 109.494 153.771 110.675 152.855 111.204L146.236 115.025C145.32 115.554 144.139 115.238 143.61 114.322L131.182 92.7956C130.653 91.8795 130.969 90.6991 131.885 90.1702L138.505 86.3486Z" fill="#30363D"/>
<path d="M242.705 237.756C243.621 237.227 244.801 237.543 245.33 238.459L249.313 245.358C249.842 246.274 249.526 247.454 248.61 247.983L240.941 252.411C240.025 252.94 238.845 252.623 238.316 251.707L234.333 244.809C233.804 243.892 234.12 242.712 235.036 242.183L242.705 237.756Z" fill="#30363D"/>
<path d="M235.913 225.993C236.829 225.464 238.01 225.78 238.539 226.696L242.522 233.595C243.051 234.511 242.734 235.691 241.818 236.22L234.15 240.648C233.234 241.177 232.053 240.86 231.524 239.944L227.541 233.045C227.012 232.129 227.329 230.949 228.245 230.42L235.913 225.993Z" fill="#30363D"/>
<path d="M229.124 214.234C230.04 213.705 231.221 214.021 231.75 214.937L235.733 221.836C236.262 222.752 235.945 223.932 235.029 224.461L227.361 228.889C226.445 229.418 225.264 229.101 224.735 228.185L220.752 221.287C220.223 220.371 220.54 219.19 221.456 218.661L229.124 214.234Z" fill="#30363D"/>
<path d="M220.518 199.327C221.434 198.798 222.614 199.114 223.143 200.03L228.944 210.077C229.473 210.993 229.156 212.174 228.24 212.703L220.572 217.13C219.656 217.659 218.475 217.343 217.946 216.427L212.146 206.379C211.617 205.463 211.933 204.283 212.849 203.754L220.518 199.327Z" fill="#30363D"/>
<path d="M178.205 126.038C179.121 125.509 180.301 125.826 180.83 126.742L186.631 136.789C187.16 137.705 186.843 138.885 185.927 139.414L178.259 143.842C177.343 144.371 176.162 144.054 175.633 143.138L169.833 133.091C169.304 132.175 169.62 130.995 170.536 130.466L178.205 126.038Z" fill="#30363D"/>
<path d="M186.687 140.73C187.603 140.201 188.784 140.518 189.313 141.434L220.382 195.247C220.911 196.164 220.595 197.344 219.678 197.873L212.01 202.3C211.094 202.829 209.913 202.513 209.384 201.597L178.318 147.788C177.789 146.871 178.105 145.691 179.021 145.162L186.69 140.735L186.687 140.73Z" fill="#30363D"/>
<path d="M171.515 114.451C172.431 113.923 173.612 114.239 174.14 115.155L178.123 122.054C178.652 122.97 178.336 124.15 177.42 124.679L169.751 129.107C168.835 129.636 167.655 129.319 167.126 128.403L163.143 121.504C162.614 120.588 162.93 119.408 163.846 118.879L171.515 114.451Z" fill="#30363D"/>
<path d="M164.684 102.62C165.6 102.091 166.78 102.407 167.309 103.323L171.292 110.222C171.821 111.138 171.505 112.318 170.589 112.847L168.318 114.158C167.402 114.687 166.221 114.371 165.692 113.455L161.709 106.556C161.181 105.64 161.497 104.46 162.413 103.931L164.684 102.62Z" fill="#30363D"/>
<path d="M157.85 90.7833C158.766 90.2544 159.947 90.5707 160.476 91.4868L164.459 98.3855C164.988 99.3016 164.671 100.482 163.755 101.011L156.087 105.438C155.17 105.967 153.99 105.651 153.461 104.735L149.478 97.8362C148.949 96.9201 149.266 95.7397 150.182 95.2107L157.85 90.7833Z" fill="#30363D"/>
<path d="M151.094 79.0804C152.01 78.5515 153.19 78.8678 153.719 79.7839L157.702 86.6826C158.231 87.5987 157.915 88.7791 156.998 89.3081L154.728 90.6192C153.811 91.1481 152.631 90.8318 152.102 89.9157L148.119 83.017C147.59 82.1008 147.907 80.9204 148.823 80.3915L151.094 79.0804Z" fill="#30363D"/>
<path d="M236.676 98.5075C238.504 97.4521 240.869 98.0822 241.927 99.9145L275.81 158.601C276.865 160.429 276.231 162.797 274.403 163.852L232.95 187.785C231.122 188.84 228.755 188.206 227.699 186.378L193.817 127.691C192.759 125.859 193.391 123.498 195.224 122.44L236.676 98.5075Z" fill="#CDD5D7"/>
<path d="M32.649 152.757L124.888 312.521L142.367 342.795L168.372 301.999L162.057 291.061L69.8179 131.298L63.5007 120.356L15.1725 122.487L32.649 152.757Z" fill="#01BACC"/>
<path d="M79.0745 136.941C78.8251 137.085 78.7396 137.404 78.8836 137.654L161.779 281.232C161.923 281.482 162.242 281.567 162.491 281.423L169.833 277.185C170.082 277.041 170.164 276.724 170.02 276.475L87.1243 132.896C86.9803 132.646 86.6614 132.561 86.4162 132.702L79.0745 136.941Z" fill="#30363D"/>
</g>
<defs>
<clipPath id="clip0">
<rect width="292.154" height="220.127" fill="white" transform="translate(146.077 363.076) rotate(-120)"/>
</clipPath>
</defs>
</svg>
